<mxfile host="65bd71144e">
    <diagram id="ROJgKOlw1JvFACg1yOyk" name="Page-1">
        <mxGraphModel dx="598" dy="414" grid="1" gridSize="10" guides="1" tooltips="1" connect="1" arrows="1" fold="1" page="1" pageScale="1" pageWidth="827" pageHeight="1169" background="#000000" math="0" shadow="0">
            <root>
                <mxCell id="0"/>
                <mxCell id="1" parent="0"/>
                <mxCell id="5" value="" style="whiteSpace=wrap;html=1;aspect=fixed;" vertex="1" parent="1">
                    <mxGeometry x="358.5" y="65" width="120" height="120" as="geometry"/>
                </mxCell>
                <mxCell id="6" value="" style="rounded=0;whiteSpace=wrap;html=1;fillColor=#eeeeee;strokeColor=#36393d;" vertex="1" parent="1">
                    <mxGeometry x="358.5" y="65" width="120" height="20" as="geometry"/>
                </mxCell>
                <mxCell id="7" value="" style="rounded=0;whiteSpace=wrap;html=1;fillColor=#eeeeee;strokeColor=#36393d;" vertex="1" parent="1">
                    <mxGeometry x="358.5" y="165" width="120" height="20" as="geometry"/>
                </mxCell>
                <mxCell id="8" value="&lt;b style=&quot;font-size: 9px;&quot;&gt;Made by xxx&lt;/b&gt;" style="text;html=1;align=center;verticalAlign=middle;whiteSpace=wrap;rounded=0;strokeColor=none;fontColor=#000000;fontSize=9;" vertex="1" parent="1">
                    <mxGeometry x="394" y="160" width="110" height="30" as="geometry"/>
                </mxCell>
                <mxCell id="9" value="Log In Register" style="text;html=1;strokeColor=none;fillColor=none;align=center;verticalAlign=middle;whiteSpace=wrap;rounded=0;fontColor=#000000;fontSize=6;" vertex="1" parent="1">
                    <mxGeometry x="418.5" y="60" width="69" height="30" as="geometry"/>
                </mxCell>
                <mxCell id="10" value="LOGO" style="text;html=1;strokeColor=none;fillColor=none;align=center;verticalAlign=middle;whiteSpace=wrap;rounded=0;fontSize=6;fontColor=#000000;" vertex="1" parent="1">
                    <mxGeometry x="384.5" y="60" width="60" height="30" as="geometry"/>
                </mxCell>
                <mxCell id="11" value="" style="shape=process;whiteSpace=wrap;html=1;backgroundOutline=1;strokeColor=default;fontSize=6;fontColor=#000000;" vertex="1" parent="1">
                    <mxGeometry x="358.5" y="95" width="120" height="60" as="geometry"/>
                </mxCell>
                <mxCell id="14" value="HOMEPAGE" style="text;html=1;strokeColor=none;fillColor=none;align=center;verticalAlign=middle;whiteSpace=wrap;rounded=0;fontSize=13;fontColor=#FFFFFF;" vertex="1" parent="1">
                    <mxGeometry x="328.5" y="30" width="180" height="30" as="geometry"/>
                </mxCell>
                <mxCell id="16" value="" style="shape=flexArrow;endArrow=classic;html=1;fontSize=13;fontColor=#FFFFFF;fillColor=#e1d5e7;strokeColor=#9673a6;" edge="1" parent="1">
                    <mxGeometry width="50" height="50" relative="1" as="geometry">
                        <mxPoint x="487.5" y="130" as="sourcePoint"/>
                        <mxPoint x="560" y="130" as="targetPoint"/>
                        <Array as="points"/>
                    </mxGeometry>
                </mxCell>
                <mxCell id="17" value="" style="whiteSpace=wrap;html=1;aspect=fixed;fillColor=#eeeeee;strokeColor=#36393d;" vertex="1" parent="1">
                    <mxGeometry x="570" y="65" width="120" height="120" as="geometry"/>
                </mxCell>
                <mxCell id="18" value="" style="rounded=0;whiteSpace=wrap;html=1;fillColor=#eeeeee;strokeColor=none;" vertex="1" parent="1">
                    <mxGeometry x="570" y="65" width="120" height="20" as="geometry"/>
                </mxCell>
                <mxCell id="19" value="" style="rounded=0;whiteSpace=wrap;html=1;fillColor=#eeeeee;strokeColor=none;" vertex="1" parent="1">
                    <mxGeometry x="570" y="165" width="120" height="20" as="geometry"/>
                </mxCell>
                <mxCell id="21" value="REGISTER" style="text;html=1;strokeColor=none;fillColor=none;align=center;verticalAlign=middle;whiteSpace=wrap;rounded=0;fontSize=13;fontColor=#FFFFFF;" vertex="1" parent="1">
                    <mxGeometry x="540" y="30" width="180" height="30" as="geometry"/>
                </mxCell>
                <mxCell id="22" value="" style="shape=flexArrow;endArrow=classic;html=1;fontSize=13;fontColor=#FFFFFF;fillColor=#e1d5e7;strokeColor=#9673a6;" edge="1" parent="1">
                    <mxGeometry width="50" height="50" relative="1" as="geometry">
                        <mxPoint x="350" y="130" as="sourcePoint"/>
                        <mxPoint x="270" y="130" as="targetPoint"/>
                        <Array as="points"/>
                    </mxGeometry>
                </mxCell>
                <mxCell id="23" value="LOGO" style="text;html=1;strokeColor=none;fillColor=none;align=center;verticalAlign=middle;whiteSpace=wrap;rounded=0;fontSize=6;fontColor=#000000;" vertex="1" parent="1">
                    <mxGeometry x="600" y="60" width="60" height="30" as="geometry"/>
                </mxCell>
                <mxCell id="26" value="&lt;b style=&quot;font-size: 9px;&quot;&gt;Made by xxx&lt;/b&gt;" style="text;html=1;align=center;verticalAlign=middle;whiteSpace=wrap;rounded=0;strokeColor=none;fontColor=#000000;fontSize=9;" vertex="1" parent="1">
                    <mxGeometry x="605" y="160" width="110" height="30" as="geometry"/>
                </mxCell>
                <mxCell id="28" value="Name&lt;br&gt;&lt;br&gt;Last Name&lt;br&gt;&lt;br&gt;Email&lt;br&gt;&lt;br&gt;Password&lt;br&gt;&lt;br&gt;Confirm Password&lt;br&gt;" style="text;html=1;strokeColor=none;fillColor=none;align=center;verticalAlign=middle;whiteSpace=wrap;rounded=0;fontSize=6;fontColor=#000000;" vertex="1" parent="1">
                    <mxGeometry x="600" y="81" width="60" height="70" as="geometry"/>
                </mxCell>
                <mxCell id="32" style="edgeStyle=none;html=1;exitX=0.25;exitY=1;exitDx=0;exitDy=0;fontSize=13;fontColor=#FFFFFF;" edge="1" parent="1" source="30" target="28">
                    <mxGeometry relative="1" as="geometry"/>
                </mxCell>
                <mxCell id="30" value="" style="rounded=1;whiteSpace=wrap;html=1;strokeColor=#36393d;fontSize=13;fillColor=#eeeeee;strokeWidth=2;" vertex="1" parent="1">
                    <mxGeometry x="600" y="91" width="60" height="4" as="geometry"/>
                </mxCell>
                <mxCell id="34" value="" style="rounded=1;whiteSpace=wrap;html=1;strokeColor=#36393d;fontSize=13;fillColor=#eeeeee;strokeWidth=2;" vertex="1" parent="1">
                    <mxGeometry x="600" y="106" width="60" height="4" as="geometry"/>
                </mxCell>
                <mxCell id="35" value="" style="rounded=1;whiteSpace=wrap;html=1;strokeColor=#36393d;fontSize=13;fillColor=#eeeeee;strokeWidth=2;" vertex="1" parent="1">
                    <mxGeometry x="600" y="121" width="60" height="4" as="geometry"/>
                </mxCell>
                <mxCell id="36" value="" style="rounded=1;whiteSpace=wrap;html=1;strokeColor=#36393d;fontSize=13;fillColor=#eeeeee;strokeWidth=2;" vertex="1" parent="1">
                    <mxGeometry x="600" y="136" width="60" height="4" as="geometry"/>
                </mxCell>
                <mxCell id="37" value="" style="rounded=1;whiteSpace=wrap;html=1;strokeColor=#36393d;fontSize=13;fillColor=#eeeeee;strokeWidth=2;" vertex="1" parent="1">
                    <mxGeometry x="600" y="151" width="60" height="4" as="geometry"/>
                </mxCell>
                <mxCell id="39" style="edgeStyle=none;html=1;exitX=0.25;exitY=1;exitDx=0;exitDy=0;fontSize=13;fontColor=#FFFFFF;" edge="1" parent="1" source="38" target="26">
                    <mxGeometry relative="1" as="geometry"/>
                </mxCell>
                <mxCell id="38" value="" style="rounded=1;whiteSpace=wrap;html=1;fontSize=13;strokeWidth=2;fillColor=#dae8fc;strokeColor=#6c8ebf;" vertex="1" parent="1">
                    <mxGeometry x="615" y="161" width="30" height="4" as="geometry"/>
                </mxCell>
                <mxCell id="41" value="" style="whiteSpace=wrap;html=1;aspect=fixed;fillColor=#eeeeee;strokeColor=#36393d;" vertex="1" parent="1">
                    <mxGeometry x="140" y="70" width="120" height="120" as="geometry"/>
                </mxCell>
                <mxCell id="42" value="" style="rounded=0;whiteSpace=wrap;html=1;fillColor=#eeeeee;strokeColor=none;" vertex="1" parent="1">
                    <mxGeometry x="140" y="70" width="120" height="20" as="geometry"/>
                </mxCell>
                <mxCell id="43" value="" style="rounded=0;whiteSpace=wrap;html=1;fillColor=#eeeeee;strokeColor=none;" vertex="1" parent="1">
                    <mxGeometry x="140" y="170" width="120" height="20" as="geometry"/>
                </mxCell>
                <mxCell id="44" value="LOGO" style="text;html=1;strokeColor=none;fillColor=none;align=center;verticalAlign=middle;whiteSpace=wrap;rounded=0;fontSize=6;fontColor=#000000;" vertex="1" parent="1">
                    <mxGeometry x="170" y="65" width="60" height="30" as="geometry"/>
                </mxCell>
                <mxCell id="45" value="&lt;b style=&quot;font-size: 9px;&quot;&gt;Made by xxx&lt;/b&gt;" style="text;html=1;align=center;verticalAlign=middle;whiteSpace=wrap;rounded=0;strokeColor=none;fontColor=#000000;fontSize=9;" vertex="1" parent="1">
                    <mxGeometry x="175" y="165" width="110" height="30" as="geometry"/>
                </mxCell>
                <mxCell id="46" value="&lt;br&gt;&lt;br&gt;&lt;br&gt;&lt;br&gt;Email&lt;br&gt;&lt;br&gt;Password&lt;br&gt;&lt;br&gt;" style="text;html=1;strokeColor=none;fillColor=none;align=center;verticalAlign=middle;whiteSpace=wrap;rounded=0;fontSize=6;fontColor=#000000;" vertex="1" parent="1">
                    <mxGeometry x="170" y="70" width="60" height="70" as="geometry"/>
                </mxCell>
                <mxCell id="47" style="edgeStyle=none;html=1;exitX=0.25;exitY=1;exitDx=0;exitDy=0;fontSize=13;fontColor=#FFFFFF;" edge="1" parent="1" target="46">
                    <mxGeometry relative="1" as="geometry">
                        <mxPoint x="185.00000000000045" y="100" as="sourcePoint"/>
                    </mxGeometry>
                </mxCell>
                <mxCell id="50" value="" style="rounded=1;whiteSpace=wrap;html=1;strokeColor=#36393d;fontSize=13;fillColor=#eeeeee;strokeWidth=2;" vertex="1" parent="1">
                    <mxGeometry x="170" y="112" width="60" height="4" as="geometry"/>
                </mxCell>
                <mxCell id="51" value="" style="rounded=1;whiteSpace=wrap;html=1;strokeColor=#36393d;fontSize=13;fillColor=#eeeeee;strokeWidth=2;" vertex="1" parent="1">
                    <mxGeometry x="170" y="128" width="60" height="4" as="geometry"/>
                </mxCell>
                <mxCell id="53" style="edgeStyle=none;html=1;exitX=0.25;exitY=1;exitDx=0;exitDy=0;fontSize=13;fontColor=#FFFFFF;" edge="1" parent="1" source="54" target="45">
                    <mxGeometry relative="1" as="geometry"/>
                </mxCell>
                <mxCell id="54" value="" style="rounded=1;whiteSpace=wrap;html=1;fontSize=13;strokeWidth=2;fillColor=#dae8fc;strokeColor=#6c8ebf;" vertex="1" parent="1">
                    <mxGeometry x="185" y="138" width="30" height="4" as="geometry"/>
                </mxCell>
                <mxCell id="56" value="LOG IN" style="text;html=1;strokeColor=none;fillColor=none;align=center;verticalAlign=middle;whiteSpace=wrap;rounded=0;fontSize=13;fontColor=#FFFFFF;" vertex="1" parent="1">
                    <mxGeometry x="110" y="35" width="180" height="30" as="geometry"/>
                </mxCell>
                <mxCell id="58" value="" style="shape=cylinder3;whiteSpace=wrap;html=1;boundedLbl=1;backgroundOutline=1;size=15;strokeWidth=2;fontSize=13;fillColor=#dae8fc;strokeColor=#6c8ebf;" vertex="1" parent="1">
                    <mxGeometry x="395" y="220" width="70" height="80" as="geometry"/>
                </mxCell>
                <mxCell id="59" value="" style="shape=flexArrow;endArrow=classic;html=1;fontSize=13;fontColor=#FFFFFF;fillColor=#dae8fc;strokeColor=#6c8ebf;" edge="1" parent="1">
                    <mxGeometry width="50" height="50" relative="1" as="geometry">
                        <mxPoint x="200" y="200" as="sourcePoint"/>
                        <mxPoint x="390" y="260" as="targetPoint"/>
                        <Array as="points">
                            <mxPoint x="200" y="260"/>
                        </Array>
                    </mxGeometry>
                </mxCell>
                <mxCell id="60" value="Check if user exists" style="text;html=1;strokeColor=none;fillColor=none;align=center;verticalAlign=middle;whiteSpace=wrap;rounded=0;strokeWidth=2;fontSize=13;fontColor=#FFFFFF;" vertex="1" parent="1">
                    <mxGeometry x="190" y="230" width="200" height="30" as="geometry"/>
                </mxCell>
                <mxCell id="61" value="DB&lt;br&gt;Users" style="text;html=1;strokeColor=none;fillColor=none;align=center;verticalAlign=middle;whiteSpace=wrap;rounded=0;strokeWidth=2;fontSize=13;fontColor=#FFFFFF;" vertex="1" parent="1">
                    <mxGeometry x="393.5" y="250" width="71.5" height="40" as="geometry"/>
                </mxCell>
                <mxCell id="63" value="Movie &lt;br&gt;images &lt;br&gt;scrolling" style="text;html=1;strokeColor=none;fillColor=none;align=center;verticalAlign=middle;whiteSpace=wrap;rounded=0;strokeWidth=2;fontSize=13;fontColor=#FFFFFF;" vertex="1" parent="1">
                    <mxGeometry x="333.75" y="83" width="161.5" height="82" as="geometry"/>
                </mxCell>
                <mxCell id="64" value="" style="shape=flexArrow;endArrow=classic;html=1;fontSize=13;fontColor=#FFFFFF;fillColor=#dae8fc;strokeColor=#6c8ebf;" edge="1" parent="1">
                    <mxGeometry width="50" height="50" relative="1" as="geometry">
                        <mxPoint x="637" y="200" as="sourcePoint"/>
                        <mxPoint x="470" y="260" as="targetPoint"/>
                        <Array as="points">
                            <mxPoint x="637" y="260"/>
                        </Array>
                    </mxGeometry>
                </mxCell>
                <mxCell id="65" value="Add new user to DB" style="text;html=1;strokeColor=none;fillColor=none;align=center;verticalAlign=middle;whiteSpace=wrap;rounded=0;strokeWidth=2;fontSize=13;fontColor=#FFFFFF;" vertex="1" parent="1">
                    <mxGeometry x="470" y="230" width="200" height="30" as="geometry"/>
                </mxCell>
                <mxCell id="66" value="" style="shape=flexArrow;endArrow=classic;html=1;fontSize=13;fontColor=#FFFFFF;fillColor=#f8cecc;strokeColor=#b85450;" edge="1" parent="1">
                    <mxGeometry width="50" height="50" relative="1" as="geometry">
                        <mxPoint x="460" y="310" as="sourcePoint"/>
                        <mxPoint x="630" y="350" as="targetPoint"/>
                        <Array as="points">
                            <mxPoint x="460" y="350"/>
                        </Array>
                    </mxGeometry>
                </mxCell>
                <mxCell id="67" value="Issues&lt;br&gt;&amp;nbsp;related to invalid registration" style="text;html=1;strokeColor=none;fillColor=none;align=center;verticalAlign=middle;whiteSpace=wrap;rounded=0;strokeWidth=2;fontSize=13;fontColor=#FFFFFF;" vertex="1" parent="1">
                    <mxGeometry x="460" y="310" width="165" height="20" as="geometry"/>
                </mxCell>
                <mxCell id="68" value="" style="whiteSpace=wrap;html=1;aspect=fixed;fillColor=#f5f5f5;strokeColor=#666666;fontColor=#333333;" vertex="1" parent="1">
                    <mxGeometry x="640" y="300" width="120" height="120" as="geometry"/>
                </mxCell>
                <mxCell id="77" value="" style="edgeStyle=none;html=1;fontSize=13;fontColor=#FFFFFF;startArrow=none;" edge="1" parent="1">
                    <mxGeometry relative="1" as="geometry">
                        <mxPoint x="685" y="350.0000000000001" as="sourcePoint"/>
                        <mxPoint x="700" y="368" as="targetPoint"/>
                    </mxGeometry>
                </mxCell>
                <mxCell id="69" value="" style="rounded=0;whiteSpace=wrap;html=1;fillColor=#f5f5f5;strokeColor=#666666;fontColor=#333333;" vertex="1" parent="1">
                    <mxGeometry x="640" y="300" width="120" height="20" as="geometry"/>
                </mxCell>
                <mxCell id="82" value="" style="edgeStyle=none;html=1;fontSize=13;fontColor=#000000;" edge="1" parent="1" source="70" target="81">
                    <mxGeometry relative="1" as="geometry"/>
                </mxCell>
                <mxCell id="70" value="" style="rounded=0;whiteSpace=wrap;html=1;fillColor=#f5f5f5;strokeColor=#666666;fontColor=#333333;" vertex="1" parent="1">
                    <mxGeometry x="640" y="400" width="120" height="20" as="geometry"/>
                </mxCell>
                <mxCell id="72" style="edgeStyle=none;html=1;exitX=0.25;exitY=1;exitDx=0;exitDy=0;fontSize=13;fontColor=#FFFFFF;" edge="1" parent="1">
                    <mxGeometry relative="1" as="geometry">
                        <mxPoint x="685.0000000000005" y="330" as="sourcePoint"/>
                        <mxPoint x="670" y="324.99999999999966" as="targetPoint"/>
                    </mxGeometry>
                </mxCell>
                <mxCell id="75" style="edgeStyle=none;html=1;exitX=0.25;exitY=1;exitDx=0;exitDy=0;fontSize=13;fontColor=#FFFFFF;" edge="1" parent="1">
                    <mxGeometry relative="1" as="geometry">
                        <mxPoint x="715.1973684210527" y="395" as="targetPoint"/>
                        <mxPoint x="692.5000000000002" y="372.0000000000001" as="sourcePoint"/>
                    </mxGeometry>
                </mxCell>
                <mxCell id="79" value="" style="edgeStyle=none;html=1;fontSize=13;fontColor=#FFFFFF;endArrow=none;" edge="1" parent="1" source="69">
                    <mxGeometry relative="1" as="geometry">
                        <mxPoint x="700" y="320" as="sourcePoint"/>
                        <mxPoint x="705.7142857142858" y="350" as="targetPoint"/>
                    </mxGeometry>
                </mxCell>
                <mxCell id="81" value="Error page&lt;br&gt;indicating&lt;br&gt;what is the issue" style="text;html=1;align=center;verticalAlign=middle;whiteSpace=wrap;rounded=0;strokeWidth=2;fontSize=13;fillColor=default;strokeColor=default;" vertex="1" parent="1">
                    <mxGeometry x="655" y="320" width="90" height="80" as="geometry"/>
                </mxCell>
                <mxCell id="83" value="" style="shape=flexArrow;endArrow=classic;html=1;fontSize=13;fontColor=#FFFFFF;fillColor=#f8cecc;strokeColor=#b85450;" edge="1" parent="1">
                    <mxGeometry width="50" height="50" relative="1" as="geometry">
                        <mxPoint x="400" y="310" as="sourcePoint"/>
                        <mxPoint x="204.25" y="350" as="targetPoint"/>
                        <Array as="points">
                            <mxPoint x="400" y="350"/>
                        </Array>
                    </mxGeometry>
                </mxCell>
                <mxCell id="84" value="Issues&lt;br&gt;&amp;nbsp;related to invalid log in" style="text;html=1;strokeColor=none;fillColor=none;align=center;verticalAlign=middle;whiteSpace=wrap;rounded=0;strokeWidth=2;fontSize=13;fontColor=#FFFFFF;" vertex="1" parent="1">
                    <mxGeometry x="215" y="310" width="180" height="30" as="geometry"/>
                </mxCell>
                <mxCell id="85" value="" style="whiteSpace=wrap;html=1;aspect=fixed;fillColor=#f5f5f5;strokeColor=#666666;fontColor=#333333;" vertex="1" parent="1">
                    <mxGeometry x="80" y="300" width="120" height="120" as="geometry"/>
                </mxCell>
                <mxCell id="86" value="" style="edgeStyle=none;html=1;fontSize=13;fontColor=#FFFFFF;startArrow=none;" edge="1" parent="1">
                    <mxGeometry relative="1" as="geometry">
                        <mxPoint x="125" y="350.0000000000001" as="sourcePoint"/>
                        <mxPoint x="140" y="368" as="targetPoint"/>
                    </mxGeometry>
                </mxCell>
                <mxCell id="87" value="" style="rounded=0;whiteSpace=wrap;html=1;fillColor=#f5f5f5;strokeColor=#666666;fontColor=#333333;" vertex="1" parent="1">
                    <mxGeometry x="80" y="300" width="120" height="20" as="geometry"/>
                </mxCell>
                <mxCell id="88" value="" style="edgeStyle=none;html=1;fontSize=13;fontColor=#000000;" edge="1" parent="1" source="89" target="93">
                    <mxGeometry relative="1" as="geometry"/>
                </mxCell>
                <mxCell id="89" value="" style="rounded=0;whiteSpace=wrap;html=1;fillColor=#f5f5f5;strokeColor=#666666;fontColor=#333333;" vertex="1" parent="1">
                    <mxGeometry x="80" y="400" width="120" height="20" as="geometry"/>
                </mxCell>
                <mxCell id="90" style="edgeStyle=none;html=1;exitX=0.25;exitY=1;exitDx=0;exitDy=0;fontSize=13;fontColor=#FFFFFF;" edge="1" parent="1">
                    <mxGeometry relative="1" as="geometry">
                        <mxPoint x="125.00000000000045" y="330" as="sourcePoint"/>
                        <mxPoint x="110" y="324.99999999999966" as="targetPoint"/>
                    </mxGeometry>
                </mxCell>
                <mxCell id="91" style="edgeStyle=none;html=1;exitX=0.25;exitY=1;exitDx=0;exitDy=0;fontSize=13;fontColor=#FFFFFF;" edge="1" parent="1">
                    <mxGeometry relative="1" as="geometry">
                        <mxPoint x="155.19736842105272" y="395" as="targetPoint"/>
                        <mxPoint x="132.50000000000023" y="372.0000000000001" as="sourcePoint"/>
                    </mxGeometry>
                </mxCell>
                <mxCell id="92" value="" style="edgeStyle=none;html=1;fontSize=13;fontColor=#FFFFFF;endArrow=none;" edge="1" parent="1" source="87">
                    <mxGeometry relative="1" as="geometry">
                        <mxPoint x="140" y="320" as="sourcePoint"/>
                        <mxPoint x="145.71428571428578" y="350" as="targetPoint"/>
                    </mxGeometry>
                </mxCell>
                <mxCell id="93" value="Error page&lt;br&gt;indicating&lt;br&gt;what is the issue" style="text;html=1;align=center;verticalAlign=middle;whiteSpace=wrap;rounded=0;strokeWidth=2;fontSize=13;fillColor=default;strokeColor=default;" vertex="1" parent="1">
                    <mxGeometry x="95" y="320" width="90" height="80" as="geometry"/>
                </mxCell>
                <mxCell id="95" value="" style="shape=flexArrow;endArrow=classic;html=1;fontSize=13;fontColor=#000000;fillColor=#d5e8d4;strokeColor=#82b366;" edge="1" parent="1">
                    <mxGeometry width="50" height="50" relative="1" as="geometry">
                        <mxPoint x="428.69" y="310" as="sourcePoint"/>
                        <mxPoint x="428.69" y="550" as="targetPoint"/>
                    </mxGeometry>
                </mxCell>
                <mxCell id="96" value="If no issues&amp;nbsp;&lt;br&gt;are encountered&lt;br&gt;during the&amp;nbsp;&lt;br&gt;log in&amp;nbsp;&lt;br&gt;/&lt;br&gt;registration" style="text;html=1;strokeColor=none;fillColor=none;align=center;verticalAlign=middle;whiteSpace=wrap;rounded=0;strokeWidth=2;fontSize=13;fontColor=#FFFFFF;" vertex="1" parent="1">
                    <mxGeometry x="400" y="420" width="180" height="30" as="geometry"/>
                </mxCell>
                <mxCell id="97" value="LOGO" style="text;html=1;strokeColor=none;fillColor=none;align=center;verticalAlign=middle;whiteSpace=wrap;rounded=0;fontSize=6;fontColor=#000000;" vertex="1" parent="1">
                    <mxGeometry x="110" y="295" width="60" height="30" as="geometry"/>
                </mxCell>
                <mxCell id="99" value="LOGO" style="text;html=1;strokeColor=none;fillColor=none;align=center;verticalAlign=middle;whiteSpace=wrap;rounded=0;fontSize=6;fontColor=#000000;" vertex="1" parent="1">
                    <mxGeometry x="670" y="295" width="60" height="30" as="geometry"/>
                </mxCell>
                <mxCell id="100" value="&lt;b style=&quot;font-size: 9px;&quot;&gt;Made by xxx&lt;/b&gt;" style="text;html=1;align=center;verticalAlign=middle;whiteSpace=wrap;rounded=0;strokeColor=none;fontColor=#000000;fontSize=9;" vertex="1" parent="1">
                    <mxGeometry x="670" y="395" width="110" height="30" as="geometry"/>
                </mxCell>
                <mxCell id="101" value="&lt;b style=&quot;font-size: 9px;&quot;&gt;Made by xxx&lt;/b&gt;" style="text;html=1;align=center;verticalAlign=middle;whiteSpace=wrap;rounded=0;strokeColor=none;fontColor=#000000;fontSize=9;" vertex="1" parent="1">
                    <mxGeometry x="110" y="395" width="110" height="30" as="geometry"/>
                </mxCell>
                <mxCell id="102" value="" style="whiteSpace=wrap;html=1;aspect=fixed;" vertex="1" parent="1">
                    <mxGeometry x="369.25" y="590" width="120" height="120" as="geometry"/>
                </mxCell>
                <mxCell id="103" value="" style="rounded=0;whiteSpace=wrap;html=1;fillColor=#eeeeee;strokeColor=#36393d;" vertex="1" parent="1">
                    <mxGeometry x="369.25" y="590" width="120" height="20" as="geometry"/>
                </mxCell>
                <mxCell id="104" value="" style="rounded=0;whiteSpace=wrap;html=1;fillColor=#eeeeee;strokeColor=#36393d;" vertex="1" parent="1">
                    <mxGeometry x="369.25" y="690" width="120" height="20" as="geometry"/>
                </mxCell>
                <mxCell id="105" value="&lt;font style=&quot;font-size: 4px;&quot;&gt;&amp;nbsp; &amp;nbsp; &amp;nbsp;Library&amp;nbsp; &amp;nbsp; &amp;nbsp; &amp;nbsp; &amp;nbsp; &amp;nbsp;Settings&lt;br&gt;&amp;nbsp; Log Out&lt;/font&gt;" style="text;html=1;strokeColor=none;fillColor=none;align=center;verticalAlign=middle;whiteSpace=wrap;rounded=0;fontColor=#000000;fontSize=6;" vertex="1" parent="1">
                    <mxGeometry x="430" y="585" width="63.75" height="30" as="geometry"/>
                </mxCell>
                <mxCell id="106" value="LOGO" style="text;html=1;strokeColor=none;fillColor=none;align=center;verticalAlign=middle;whiteSpace=wrap;rounded=0;fontSize=6;fontColor=#000000;" vertex="1" parent="1">
                    <mxGeometry x="360" y="585" width="60" height="30" as="geometry"/>
                </mxCell>
                <mxCell id="108" value="HOME" style="text;html=1;strokeColor=none;fillColor=none;align=center;verticalAlign=middle;whiteSpace=wrap;rounded=0;fontSize=13;fontColor=#FFFFFF;" vertex="1" parent="1">
                    <mxGeometry x="340" y="560" width="180" height="30" as="geometry"/>
                </mxCell>
                <mxCell id="109" value="" style="ellipse;whiteSpace=wrap;html=1;aspect=fixed;strokeColor=default;strokeWidth=2;fontSize=7;fontColor=#000000;fillColor=default;" vertex="1" parent="1">
                    <mxGeometry x="414" y="590" width="30" height="30" as="geometry"/>
                </mxCell>
                <mxCell id="110" value="" style="shape=actor;whiteSpace=wrap;html=1;strokeColor=default;strokeWidth=2;fontSize=7;fontColor=#000000;fillColor=default;" vertex="1" parent="1">
                    <mxGeometry x="419.25" y="595" width="20" height="20" as="geometry"/>
                </mxCell>
                <mxCell id="125" value="" style="rounded=1;whiteSpace=wrap;html=1;strokeColor=default;strokeWidth=2;fontSize=7;fontColor=#000000;fillColor=default;" vertex="1" parent="1">
                    <mxGeometry x="380" y="625" width="100" height="55" as="geometry"/>
                </mxCell>
                <mxCell id="126" value="" style="rounded=1;whiteSpace=wrap;html=1;strokeColor=default;strokeWidth=2;fontSize=7;fontColor=#000000;fillColor=default;" vertex="1" parent="1">
                    <mxGeometry x="380" y="640" width="100" height="40" as="geometry"/>
                </mxCell>
                <mxCell id="128" value="" style="rounded=1;whiteSpace=wrap;html=1;strokeColor=default;strokeWidth=2;fontSize=7;fontColor=#000000;fillColor=default;" vertex="1" parent="1">
                    <mxGeometry x="380" y="640" width="30" height="40" as="geometry"/>
                </mxCell>
                <mxCell id="129" value="&lt;b&gt;&lt;font color=&quot;#ffffff&quot;&gt;Movie Title&lt;/font&gt;&lt;/b&gt;" style="text;html=1;strokeColor=none;fillColor=none;align=center;verticalAlign=middle;whiteSpace=wrap;rounded=0;strokeWidth=2;fontSize=7;fontColor=#000000;" vertex="1" parent="1">
                    <mxGeometry x="380" y="615" width="100" height="30" as="geometry"/>
                </mxCell>
                <mxCell id="130" value="Movie&lt;br&gt;Image" style="text;html=1;strokeColor=none;fillColor=none;align=center;verticalAlign=middle;whiteSpace=wrap;rounded=0;strokeWidth=2;fontSize=7;fontColor=#FFFFFF;" vertex="1" parent="1">
                    <mxGeometry x="365" y="635" width="60" height="45" as="geometry"/>
                </mxCell>
                <mxCell id="131" value="Movie Detail 0&lt;br&gt;Movie Detail 1&lt;br&gt;Movie Detail 2&lt;br&gt;Movie Detail 3" style="text;html=1;strokeColor=none;fillColor=none;align=center;verticalAlign=middle;whiteSpace=wrap;rounded=0;strokeWidth=2;fontSize=7;fontColor=#FFFFFF;" vertex="1" parent="1">
                    <mxGeometry x="410" y="645" width="60" height="30" as="geometry"/>
                </mxCell>
                <mxCell id="132" value="" style="shape=flexArrow;endArrow=classic;html=1;fontSize=7;fontColor=#FFFFFF;entryX=1;entryY=0;entryDx=0;entryDy=0;fillColor=#e1d5e7;strokeColor=#9673a6;" edge="1" parent="1" target="63">
                    <mxGeometry width="50" height="50" relative="1" as="geometry">
                        <mxPoint x="508.5" y="645" as="sourcePoint"/>
                        <mxPoint x="470" y="20" as="targetPoint"/>
                        <Array as="points">
                            <mxPoint x="800" y="645"/>
                            <mxPoint x="790" y="20"/>
                            <mxPoint x="560" y="20"/>
                        </Array>
                    </mxGeometry>
                </mxCell>
                <mxCell id="133" value="LOG OUT" style="text;html=1;strokeColor=none;fillColor=none;align=center;verticalAlign=middle;whiteSpace=wrap;rounded=0;strokeWidth=2;fontSize=20;fontColor=#FFFFFF;fontStyle=1" vertex="1" parent="1">
                    <mxGeometry x="560" y="595" width="195" height="55" as="geometry"/>
                </mxCell>
                <mxCell id="134" value="" style="shape=flexArrow;endArrow=classic;html=1;fontSize=20;fontColor=#FFFFFF;fillColor=#e1d5e7;strokeColor=#9673a6;" edge="1" parent="1">
                    <mxGeometry width="50" height="50" relative="1" as="geometry">
                        <mxPoint x="360" y="645" as="sourcePoint"/>
                        <mxPoint x="250" y="645" as="targetPoint"/>
                    </mxGeometry>
                </mxCell>
                <mxCell id="135" value="" style="whiteSpace=wrap;html=1;aspect=fixed;" vertex="1" parent="1">
                    <mxGeometry x="119.25" y="590" width="120" height="120" as="geometry"/>
                </mxCell>
                <mxCell id="136" value="" style="rounded=0;whiteSpace=wrap;html=1;fillColor=#eeeeee;strokeColor=#36393d;" vertex="1" parent="1">
                    <mxGeometry x="119.25" y="590" width="120" height="20" as="geometry"/>
                </mxCell>
                <mxCell id="137" value="" style="rounded=0;whiteSpace=wrap;html=1;fillColor=#eeeeee;strokeColor=#36393d;" vertex="1" parent="1">
                    <mxGeometry x="119.25" y="690" width="120" height="20" as="geometry"/>
                </mxCell>
                <mxCell id="138" value="&lt;font style=&quot;font-size: 5px;&quot;&gt;&amp;nbsp; Settings&amp;nbsp; &amp;nbsp;Log Out&lt;/font&gt;" style="text;html=1;strokeColor=none;fillColor=none;align=center;verticalAlign=middle;whiteSpace=wrap;rounded=0;fontColor=#000000;fontSize=6;" vertex="1" parent="1">
                    <mxGeometry x="183.75" y="585" width="63.75" height="30" as="geometry"/>
                </mxCell>
                <mxCell id="139" value="LOGO" style="text;html=1;strokeColor=none;fillColor=none;align=center;verticalAlign=middle;whiteSpace=wrap;rounded=0;fontSize=6;fontColor=#000000;" vertex="1" parent="1">
                    <mxGeometry x="149.25" y="585" width="60" height="30" as="geometry"/>
                </mxCell>
                <mxCell id="140" value="" style="ellipse;whiteSpace=wrap;html=1;aspect=fixed;strokeColor=default;strokeWidth=2;fontSize=7;fontColor=#000000;fillColor=default;" vertex="1" parent="1">
                    <mxGeometry x="125" y="592.5" width="15" height="15" as="geometry"/>
                </mxCell>
                <mxCell id="141" value="" style="shape=actor;whiteSpace=wrap;html=1;strokeColor=default;strokeWidth=2;fontSize=7;fontColor=#000000;fillColor=default;" vertex="1" parent="1">
                    <mxGeometry x="128.5" y="596" width="8" height="8" as="geometry"/>
                </mxCell>
                <mxCell id="142" value="" style="rounded=1;whiteSpace=wrap;html=1;strokeColor=default;strokeWidth=2;fontSize=7;fontColor=#000000;fillColor=default;" vertex="1" parent="1">
                    <mxGeometry x="130" y="625" width="100" height="55" as="geometry"/>
                </mxCell>
                <mxCell id="144" value="" style="rounded=1;whiteSpace=wrap;html=1;strokeColor=default;strokeWidth=2;fontSize=7;fontColor=#000000;fillColor=default;" vertex="1" parent="1">
                    <mxGeometry x="133.25" y="630" width="13.5" height="20" as="geometry"/>
                </mxCell>
                <mxCell id="148" value="&lt;b style=&quot;font-size: 9px;&quot;&gt;Made by xxx&lt;/b&gt;" style="text;html=1;align=center;verticalAlign=middle;whiteSpace=wrap;rounded=0;strokeColor=none;fontColor=#000000;fontSize=9;" vertex="1" parent="1">
                    <mxGeometry x="150" y="685" width="110" height="30" as="geometry"/>
                </mxCell>
                <mxCell id="149" value="&lt;b style=&quot;font-size: 9px;&quot;&gt;Made by xxx&lt;/b&gt;" style="text;html=1;align=center;verticalAlign=middle;whiteSpace=wrap;rounded=0;strokeColor=none;fontColor=#000000;fontSize=9;" vertex="1" parent="1">
                    <mxGeometry x="400" y="685" width="110" height="30" as="geometry"/>
                </mxCell>
                <mxCell id="150" value="" style="rounded=1;whiteSpace=wrap;html=1;strokeColor=default;strokeWidth=2;fontSize=7;fontColor=#000000;fillColor=default;" vertex="1" parent="1">
                    <mxGeometry x="133.25" y="655" width="13.5" height="20" as="geometry"/>
                </mxCell>
                <mxCell id="151" value="" style="rounded=1;whiteSpace=wrap;html=1;strokeColor=default;strokeWidth=2;fontSize=7;fontColor=#000000;fillColor=default;" vertex="1" parent="1">
                    <mxGeometry x="185" y="630" width="13.5" height="20" as="geometry"/>
                </mxCell>
                <mxCell id="152" value="" style="rounded=1;whiteSpace=wrap;html=1;strokeColor=default;strokeWidth=2;fontSize=7;fontColor=#000000;fillColor=default;" vertex="1" parent="1">
                    <mxGeometry x="185" y="655" width="13.5" height="20" as="geometry"/>
                </mxCell>
                <mxCell id="153" value="&lt;font style=&quot;font-size: 4px;&quot;&gt;&lt;font style=&quot;font-size: 4px;&quot;&gt;Movie&lt;/font&gt; Name&lt;/font&gt;" style="text;html=1;strokeColor=none;fillColor=none;align=center;verticalAlign=middle;whiteSpace=wrap;rounded=0;strokeWidth=2;fontSize=11;fontColor=#FFFFFF;" vertex="1" parent="1">
                    <mxGeometry x="183.75" y="615" width="60" height="30" as="geometry"/>
                </mxCell>
                <mxCell id="154" value="&lt;font style=&quot;font-size: 5px;&quot;&gt;Details&lt;/font&gt;" style="text;html=1;strokeColor=none;fillColor=none;align=center;verticalAlign=middle;whiteSpace=wrap;rounded=0;strokeWidth=2;fontSize=20;fontColor=#FFFFFF;" vertex="1" parent="1">
                    <mxGeometry x="183.75" y="620" width="56.25" height="30" as="geometry"/>
                </mxCell>
                <mxCell id="157" value="&lt;meta charset=&quot;utf-8&quot;&gt;&lt;span style=&quot;color: rgb(255, 255, 255); font-family: Helvetica; font-size: 5px; font-style: normal; font-variant-ligatures: normal; font-variant-caps: normal; font-weight: 400; letter-spacing: normal; orphans: 2; text-align: center; text-indent: 0px; text-transform: none; widows: 2; word-spacing: 0px; -webkit-text-stroke-width: 0px; background-color: rgb(42, 37, 47); text-decoration-thickness: initial; text-decoration-style: initial; text-decoration-color: initial; float: none; display: inline !important;&quot;&gt;Details&lt;/span&gt;" style="text;whiteSpace=wrap;html=1;fontSize=5;fontColor=#FFFFFF;" vertex="1" parent="1">
                    <mxGeometry x="205" y="655" width="50" height="30" as="geometry"/>
                </mxCell>
                <mxCell id="158" value="&lt;meta charset=&quot;utf-8&quot;&gt;&lt;span style=&quot;color: rgb(255, 255, 255); font-family: Helvetica; font-size: 5px; font-style: normal; font-variant-ligatures: normal; font-variant-caps: normal; font-weight: 400; letter-spacing: normal; orphans: 2; text-align: center; text-indent: 0px; text-transform: none; widows: 2; word-spacing: 0px; -webkit-text-stroke-width: 0px; background-color: rgb(42, 37, 47); text-decoration-thickness: initial; text-decoration-style: initial; text-decoration-color: initial; float: none; display: inline !important;&quot;&gt;Details&lt;/span&gt;" style="text;whiteSpace=wrap;html=1;fontSize=5;fontColor=#FFFFFF;" vertex="1" parent="1">
                    <mxGeometry x="149.25" y="655" width="50" height="30" as="geometry"/>
                </mxCell>
                <mxCell id="159" value="&lt;meta charset=&quot;utf-8&quot;&gt;&lt;span style=&quot;color: rgb(255, 255, 255); font-family: Helvetica; font-size: 5px; font-style: normal; font-variant-ligatures: normal; font-variant-caps: normal; font-weight: 400; letter-spacing: normal; orphans: 2; text-align: center; text-indent: 0px; text-transform: none; widows: 2; word-spacing: 0px; -webkit-text-stroke-width: 0px; background-color: rgb(42, 37, 47); text-decoration-thickness: initial; text-decoration-style: initial; text-decoration-color: initial; float: none; display: inline !important;&quot;&gt;Details&lt;/span&gt;" style="text;whiteSpace=wrap;html=1;fontSize=5;fontColor=#FFFFFF;" vertex="1" parent="1">
                    <mxGeometry x="150" y="630" width="50" height="30" as="geometry"/>
                </mxCell>
                <mxCell id="162" value="&lt;font style=&quot;font-size: 4px;&quot;&gt;&lt;font style=&quot;font-size: 4px;&quot;&gt;Movie&lt;/font&gt; Name&lt;/font&gt;" style="text;html=1;strokeColor=none;fillColor=none;align=center;verticalAlign=middle;whiteSpace=wrap;rounded=0;strokeWidth=2;fontSize=11;fontColor=#FFFFFF;" vertex="1" parent="1">
                    <mxGeometry x="133.25" y="615" width="60" height="30" as="geometry"/>
                </mxCell>
                <mxCell id="163" value="&lt;font style=&quot;font-size: 4px;&quot;&gt;&lt;font style=&quot;font-size: 4px;&quot;&gt;Movie&lt;/font&gt; Name&lt;/font&gt;" style="text;html=1;strokeColor=none;fillColor=none;align=center;verticalAlign=middle;whiteSpace=wrap;rounded=0;strokeWidth=2;fontSize=11;fontColor=#FFFFFF;" vertex="1" parent="1">
                    <mxGeometry x="133.25" y="640" width="60" height="30" as="geometry"/>
                </mxCell>
                <mxCell id="164" value="&lt;font style=&quot;font-size: 4px;&quot;&gt;&lt;font style=&quot;font-size: 4px;&quot;&gt;Movie&lt;/font&gt; Name&lt;/font&gt;" style="text;html=1;strokeColor=none;fillColor=none;align=center;verticalAlign=middle;whiteSpace=wrap;rounded=0;strokeWidth=2;fontSize=11;fontColor=#FFFFFF;" vertex="1" parent="1">
                    <mxGeometry x="183.75" y="640" width="60" height="30" as="geometry"/>
                </mxCell>
                <mxCell id="165" value="IMG" style="text;html=1;strokeColor=none;fillColor=none;align=center;verticalAlign=middle;whiteSpace=wrap;rounded=0;strokeWidth=2;fontSize=5;fontColor=#FFFFFF;" vertex="1" parent="1">
                    <mxGeometry x="110" y="625" width="60" height="30" as="geometry"/>
                </mxCell>
                <mxCell id="166" value="IMG" style="text;html=1;strokeColor=none;fillColor=none;align=center;verticalAlign=middle;whiteSpace=wrap;rounded=0;strokeWidth=2;fontSize=5;fontColor=#FFFFFF;" vertex="1" parent="1">
                    <mxGeometry x="110" y="650" width="60" height="30" as="geometry"/>
                </mxCell>
                <mxCell id="167" value="IMG" style="text;html=1;strokeColor=none;fillColor=none;align=center;verticalAlign=middle;whiteSpace=wrap;rounded=0;strokeWidth=2;fontSize=5;fontColor=#FFFFFF;" vertex="1" parent="1">
                    <mxGeometry x="161.75" y="650" width="60" height="30" as="geometry"/>
                </mxCell>
                <mxCell id="168" value="IMG" style="text;html=1;strokeColor=none;fillColor=none;align=center;verticalAlign=middle;whiteSpace=wrap;rounded=0;strokeWidth=2;fontSize=5;fontColor=#FFFFFF;" vertex="1" parent="1">
                    <mxGeometry x="161.75" y="625" width="60" height="30" as="geometry"/>
                </mxCell>
                <mxCell id="169" value="LIBRARY" style="text;html=1;strokeColor=none;fillColor=none;align=center;verticalAlign=middle;whiteSpace=wrap;rounded=0;fontSize=13;fontColor=#FFFFFF;" vertex="1" parent="1">
                    <mxGeometry x="90" y="560" width="180" height="30" as="geometry"/>
                </mxCell>
                <mxCell id="171" value="" style="rounded=1;whiteSpace=wrap;html=1;strokeColor=default;strokeWidth=2;fontSize=5;fontColor=#FFFFFF;fillColor=default;" vertex="1" parent="1">
                    <mxGeometry x="151" y="614" width="52" height="6" as="geometry"/>
                </mxCell>
                <mxCell id="172" value="" style="html=1;verticalLabelPosition=bottom;align=center;labelBackgroundColor=#ffffff;verticalAlign=top;strokeWidth=2;strokeColor=#666666;shadow=0;dashed=0;shape=mxgraph.ios7.icons.looking_glass;fontSize=5;fontColor=#333333;fillColor=#f5f5f5;" vertex="1" parent="1">
                    <mxGeometry x="139.25" y="612" width="10" height="10" as="geometry"/>
                </mxCell>
                <mxCell id="173" value="1" style="ellipse;whiteSpace=wrap;html=1;aspect=fixed;strokeWidth=2;fontFamily=Tahoma;spacingBottom=4;spacingRight=2;strokeColor=#d3d3d3;fontSize=5;fontColor=#FFFFFF;fillColor=default;" vertex="1" parent="1">
                    <mxGeometry x="409.5" y="680" width="10" height="10" as="geometry"/>
                </mxCell>
                <mxCell id="174" value="2" style="ellipse;whiteSpace=wrap;html=1;aspect=fixed;strokeWidth=2;fontFamily=Tahoma;spacingBottom=4;spacingRight=2;strokeColor=#d3d3d3;fontSize=5;fontColor=#FFFFFF;fillColor=default;" vertex="1" parent="1">
                    <mxGeometry x="429.25" y="680" width="10" height="10" as="geometry"/>
                </mxCell>
                <mxCell id="175" value="3" style="ellipse;whiteSpace=wrap;html=1;aspect=fixed;strokeWidth=2;fontFamily=Tahoma;spacingBottom=4;spacingRight=2;strokeColor=#d3d3d3;fontSize=5;fontColor=#FFFFFF;fillColor=default;" vertex="1" parent="1">
                    <mxGeometry x="448" y="680" width="10" height="10" as="geometry"/>
                </mxCell>
                <mxCell id="177" value="" style="shape=flexArrow;endArrow=classic;html=1;fontSize=5;fontColor=#FFFFFF;fillColor=#e1d5e7;strokeColor=#9673a6;" edge="1" parent="1">
                    <mxGeometry width="50" height="50" relative="1" as="geometry">
                        <mxPoint x="100" y="650" as="sourcePoint"/>
                        <mxPoint x="350" y="680" as="targetPoint"/>
                        <Array as="points">
                            <mxPoint x="60" y="650"/>
                            <mxPoint x="60" y="760"/>
                            <mxPoint x="260" y="760"/>
                            <mxPoint x="260" y="680"/>
                        </Array>
                    </mxGeometry>
                </mxCell>
                <mxCell id="179" value="&lt;font style=&quot;font-size: 12px;&quot;&gt;Clicking on your image sends&lt;br&gt;&amp;nbsp;you back to the&amp;nbsp; Home&lt;/font&gt;" style="text;html=1;strokeColor=none;fillColor=none;align=center;verticalAlign=middle;whiteSpace=wrap;rounded=0;strokeWidth=2;fontSize=5;fontColor=#FFFFFF;" vertex="1" parent="1">
                    <mxGeometry x="12.5" y="720" width="285" height="30" as="geometry"/>
                </mxCell>
                <mxCell id="181" value="Your social profile for movies" style="text;html=1;strokeColor=none;fillColor=none;align=center;verticalAlign=middle;whiteSpace=wrap;rounded=0;strokeWidth=2;fontSize=5;fontColor=#FFFFFF;" vertex="1" parent="1">
                    <mxGeometry x="381.25" y="76" width="74.5" height="30" as="geometry"/>
                </mxCell>
                <mxCell id="182" value="" style="shape=flexArrow;endArrow=classic;html=1;fontSize=5;fontColor=#FFFFFF;fillColor=#e1d5e7;strokeColor=#9673a6;" edge="1" parent="1">
                    <mxGeometry width="50" height="50" relative="1" as="geometry">
                        <mxPoint x="430" y="725" as="sourcePoint"/>
                        <mxPoint x="430" y="815" as="targetPoint"/>
                        <Array as="points">
                            <mxPoint x="430" y="765"/>
                        </Array>
                    </mxGeometry>
                </mxCell>
                <mxCell id="184" value="" style="whiteSpace=wrap;html=1;aspect=fixed;" vertex="1" parent="1">
                    <mxGeometry x="374.25" y="850" width="120" height="120" as="geometry"/>
                </mxCell>
                <mxCell id="185" value="" style="rounded=0;whiteSpace=wrap;html=1;fillColor=#eeeeee;strokeColor=#36393d;" vertex="1" parent="1">
                    <mxGeometry x="374.25" y="850" width="120" height="20" as="geometry"/>
                </mxCell>
                <mxCell id="186" value="" style="rounded=0;whiteSpace=wrap;html=1;fillColor=#eeeeee;strokeColor=#36393d;" vertex="1" parent="1">
                    <mxGeometry x="374.25" y="950" width="120" height="20" as="geometry"/>
                </mxCell>
                <mxCell id="187" value="&lt;font style=&quot;font-size: 5px;&quot;&gt;&amp;nbsp; Library&amp;nbsp; &amp;nbsp;Log Out&lt;/font&gt;" style="text;html=1;strokeColor=none;fillColor=none;align=center;verticalAlign=middle;whiteSpace=wrap;rounded=0;fontColor=#000000;fontSize=6;" vertex="1" parent="1">
                    <mxGeometry x="438.75" y="845" width="63.75" height="30" as="geometry"/>
                </mxCell>
                <mxCell id="188" value="LOGO" style="text;html=1;strokeColor=none;fillColor=none;align=center;verticalAlign=middle;whiteSpace=wrap;rounded=0;fontSize=6;fontColor=#000000;" vertex="1" parent="1">
                    <mxGeometry x="359.25" y="845" width="60" height="30" as="geometry"/>
                </mxCell>
                <mxCell id="191" value="" style="rounded=1;whiteSpace=wrap;html=1;strokeColor=default;strokeWidth=2;fontSize=7;fontColor=#000000;fillColor=default;" vertex="1" parent="1">
                    <mxGeometry x="385" y="885" width="100" height="55" as="geometry"/>
                </mxCell>
                <mxCell id="209" value="" style="ellipse;whiteSpace=wrap;html=1;aspect=fixed;strokeColor=default;strokeWidth=2;fontSize=7;fontColor=#000000;fillColor=default;" vertex="1" parent="1">
                    <mxGeometry x="419.25" y="850" width="30" height="30" as="geometry"/>
                </mxCell>
                <mxCell id="210" value="" style="shape=actor;whiteSpace=wrap;html=1;strokeColor=default;strokeWidth=2;fontSize=7;fontColor=#000000;fillColor=default;" vertex="1" parent="1">
                    <mxGeometry x="425" y="855" width="20" height="20" as="geometry"/>
                </mxCell>
                <mxCell id="211" value="Change Email&lt;br&gt;&lt;br&gt;&lt;br&gt;Change Password" style="text;html=1;strokeColor=none;fillColor=none;align=center;verticalAlign=middle;whiteSpace=wrap;rounded=0;strokeWidth=2;fontSize=5;fontColor=#FFFFFF;" vertex="1" parent="1">
                    <mxGeometry x="395" y="882.5" width="80" height="55" as="geometry"/>
                </mxCell>
                <mxCell id="213" value="" style="shape=flexArrow;endArrow=classic;html=1;fontSize=5;fontColor=#FFFFFF;fillColor=#e1d5e7;strokeColor=#9673a6;" edge="1" parent="1">
                    <mxGeometry width="50" height="50" relative="1" as="geometry">
                        <mxPoint x="502.5" y="920" as="sourcePoint"/>
                        <mxPoint x="620" y="920" as="targetPoint"/>
                        <Array as="points">
                            <mxPoint x="552.26" y="920"/>
                        </Array>
                    </mxGeometry>
                </mxCell>
                <mxCell id="214" value="" style="endArrow=classic;html=1;fontSize=5;fontColor=#FFFFFF;" edge="1" parent="1">
                    <mxGeometry width="50" height="50" relative="1" as="geometry">
                        <mxPoint x="151" y="560" as="sourcePoint"/>
                        <mxPoint x="120" y="530" as="targetPoint"/>
                    </mxGeometry>
                </mxCell>
                <mxCell id="217" value="" style="whiteSpace=wrap;html=1;aspect=fixed;strokeWidth=2;fontSize=5;" vertex="1" parent="1">
                    <mxGeometry x="15" y="460" width="100" height="100" as="geometry"/>
                </mxCell>
                <mxCell id="218" value="&lt;h1 style=&quot;font-size: 7px;&quot;&gt;Idea integration&lt;/h1&gt;&lt;p style=&quot;font-size: 7px;&quot;&gt;&lt;font style=&quot;font-size: 7px;&quot;&gt;You will be able to add movies from&amp;nbsp; this page, meanwhile you can remove them from you library in the Home by clicking on a small button next to the movie (position might change)&lt;/font&gt;&lt;/p&gt;" style="text;html=1;spacing=5;spacingTop=-20;whiteSpace=wrap;overflow=hidden;rounded=0;strokeWidth=2;fontSize=5;" vertex="1" parent="1">
                    <mxGeometry x="19.25" y="472.5" width="90.75" height="120" as="geometry"/>
                </mxCell>
                <mxCell id="220" value="" style="endArrow=classic;html=1;fontSize=5;fontColor=#FFFFFF;" edge="1" parent="1">
                    <mxGeometry width="50" height="50" relative="1" as="geometry">
                        <mxPoint x="400" y="563.5" as="sourcePoint"/>
                        <mxPoint x="369" y="533.5" as="targetPoint"/>
                    </mxGeometry>
                </mxCell>
                <mxCell id="221" value="" style="whiteSpace=wrap;html=1;aspect=fixed;strokeWidth=2;fontSize=5;" vertex="1" parent="1">
                    <mxGeometry x="264" y="463.5" width="100" height="100" as="geometry"/>
                </mxCell>
                <mxCell id="222" value="&lt;h1 style=&quot;font-size: 7px;&quot;&gt;Idea integration&lt;/h1&gt;&lt;p style=&quot;font-size: 7px;&quot;&gt;Might integrate a section where the user can express its own personal opinion about the movie, with a review and rating. It can be reviewed by clicking on a button or maybe on the section of the movie.&lt;/p&gt;" style="text;html=1;spacing=5;spacingTop=-20;whiteSpace=wrap;overflow=hidden;rounded=0;strokeWidth=2;fontSize=5;fontColor=#F0F0F0;" vertex="1" parent="1">
                    <mxGeometry x="268.25" y="476" width="90.75" height="120" as="geometry"/>
                </mxCell>
                <mxCell id="223" value="SETTINGS" style="text;html=1;strokeColor=none;fillColor=none;align=center;verticalAlign=middle;whiteSpace=wrap;rounded=0;fontSize=13;fontColor=#FFFFFF;" vertex="1" parent="1">
                    <mxGeometry x="344.25" y="820" width="180" height="30" as="geometry"/>
                </mxCell>
                <mxCell id="224" value="" style="shape=flexArrow;endArrow=classic;html=1;fontSize=5;fontColor=#FFFFFF;fillColor=#e1d5e7;strokeColor=#9673a6;" edge="1" parent="1">
                    <mxGeometry width="50" height="50" relative="1" as="geometry">
                        <mxPoint x="355.24" y="920" as="sourcePoint"/>
                        <mxPoint x="230" y="920" as="targetPoint"/>
                        <Array as="points">
                            <mxPoint x="310" y="920"/>
                        </Array>
                    </mxGeometry>
                </mxCell>
                <mxCell id="225" value="Change Email" style="text;html=1;strokeColor=none;fillColor=none;align=center;verticalAlign=middle;whiteSpace=wrap;rounded=0;strokeWidth=2;fontSize=11;fontColor=#FFFFFF;" vertex="1" parent="1">
                    <mxGeometry x="221.75" y="880" width="160" height="50" as="geometry"/>
                </mxCell>
                <mxCell id="226" value="Change Password" style="text;html=1;strokeColor=none;fillColor=none;align=center;verticalAlign=middle;whiteSpace=wrap;rounded=0;strokeWidth=2;fontSize=11;fontColor=#FFFFFF;" vertex="1" parent="1">
                    <mxGeometry x="470" y="882.5" width="165" height="50" as="geometry"/>
                </mxCell>
                <mxCell id="227" value="" style="whiteSpace=wrap;html=1;aspect=fixed;" vertex="1" parent="1">
                    <mxGeometry x="95" y="847.5" width="120" height="120" as="geometry"/>
                </mxCell>
                <mxCell id="228" value="" style="rounded=0;whiteSpace=wrap;html=1;fillColor=#eeeeee;strokeColor=#36393d;" vertex="1" parent="1">
                    <mxGeometry x="95" y="847.5" width="120" height="20" as="geometry"/>
                </mxCell>
                <mxCell id="229" value="" style="rounded=0;whiteSpace=wrap;html=1;fillColor=#eeeeee;strokeColor=#36393d;" vertex="1" parent="1">
                    <mxGeometry x="95" y="947.5" width="120" height="20" as="geometry"/>
                </mxCell>
                <mxCell id="230" value="&lt;font style=&quot;font-size: 5px;&quot;&gt;&amp;nbsp; Library&amp;nbsp; &amp;nbsp;Log Out&lt;/font&gt;" style="text;html=1;strokeColor=none;fillColor=none;align=center;verticalAlign=middle;whiteSpace=wrap;rounded=0;fontColor=#000000;fontSize=6;" vertex="1" parent="1">
                    <mxGeometry x="159.5" y="842.5" width="63.75" height="30" as="geometry"/>
                </mxCell>
                <mxCell id="231" value="LOGO" style="text;html=1;strokeColor=none;fillColor=none;align=center;verticalAlign=middle;whiteSpace=wrap;rounded=0;fontSize=6;fontColor=#000000;" vertex="1" parent="1">
                    <mxGeometry x="80" y="842.5" width="60" height="30" as="geometry"/>
                </mxCell>
                <mxCell id="232" value="" style="rounded=1;whiteSpace=wrap;html=1;strokeColor=default;strokeWidth=2;fontSize=7;fontColor=#000000;fillColor=default;" vertex="1" parent="1">
                    <mxGeometry x="105.75" y="882.5" width="100" height="55" as="geometry"/>
                </mxCell>
                <mxCell id="233" value="" style="ellipse;whiteSpace=wrap;html=1;aspect=fixed;strokeColor=default;strokeWidth=2;fontSize=7;fontColor=#000000;fillColor=default;" vertex="1" parent="1">
                    <mxGeometry x="140" y="847.5" width="30" height="30" as="geometry"/>
                </mxCell>
                <mxCell id="234" value="" style="shape=actor;whiteSpace=wrap;html=1;strokeColor=default;strokeWidth=2;fontSize=7;fontColor=#000000;fillColor=default;" vertex="1" parent="1">
                    <mxGeometry x="145.75" y="852.5" width="20" height="20" as="geometry"/>
                </mxCell>
                <mxCell id="235" value="New Email&lt;br&gt;&lt;br&gt;&lt;br&gt;" style="text;html=1;strokeColor=none;fillColor=none;align=center;verticalAlign=middle;whiteSpace=wrap;rounded=0;strokeWidth=2;fontSize=5;fontColor=#FFFFFF;" vertex="1" parent="1">
                    <mxGeometry x="115.75" y="880" width="80" height="55" as="geometry"/>
                </mxCell>
                <mxCell id="245" value="" style="rounded=1;whiteSpace=wrap;html=1;strokeColor=#36393d;fontSize=13;fillColor=#eeeeee;strokeWidth=2;" vertex="1" parent="1">
                    <mxGeometry x="125.75" y="910.5" width="60" height="4" as="geometry"/>
                </mxCell>
                <mxCell id="246" value="" style="rounded=1;whiteSpace=wrap;html=1;fontSize=13;strokeWidth=2;fillColor=#dae8fc;strokeColor=#6c8ebf;" vertex="1" parent="1">
                    <mxGeometry x="140.75" y="920" width="30" height="4" as="geometry"/>
                </mxCell>
                <mxCell id="247" value="" style="whiteSpace=wrap;html=1;aspect=fixed;" vertex="1" parent="1">
                    <mxGeometry x="640" y="857.5" width="120" height="120" as="geometry"/>
                </mxCell>
                <mxCell id="248" value="" style="rounded=0;whiteSpace=wrap;html=1;fillColor=#eeeeee;strokeColor=#36393d;" vertex="1" parent="1">
                    <mxGeometry x="640" y="857.5" width="120" height="20" as="geometry"/>
                </mxCell>
                <mxCell id="249" value="" style="rounded=0;whiteSpace=wrap;html=1;fillColor=#eeeeee;strokeColor=#36393d;" vertex="1" parent="1">
                    <mxGeometry x="640" y="957.5" width="120" height="20" as="geometry"/>
                </mxCell>
                <mxCell id="250" value="&lt;font style=&quot;font-size: 5px;&quot;&gt;&amp;nbsp; Library&amp;nbsp; &amp;nbsp;Log Out&lt;/font&gt;" style="text;html=1;strokeColor=none;fillColor=none;align=center;verticalAlign=middle;whiteSpace=wrap;rounded=0;fontColor=#000000;fontSize=6;" vertex="1" parent="1">
                    <mxGeometry x="704.5" y="852.5" width="63.75" height="30" as="geometry"/>
                </mxCell>
                <mxCell id="251" value="LOGO" style="text;html=1;strokeColor=none;fillColor=none;align=center;verticalAlign=middle;whiteSpace=wrap;rounded=0;fontSize=6;fontColor=#000000;" vertex="1" parent="1">
                    <mxGeometry x="625" y="852.5" width="60" height="30" as="geometry"/>
                </mxCell>
                <mxCell id="252" value="" style="rounded=1;whiteSpace=wrap;html=1;strokeColor=default;strokeWidth=2;fontSize=7;fontColor=#000000;fillColor=default;" vertex="1" parent="1">
                    <mxGeometry x="650.75" y="892.5" width="100" height="55" as="geometry"/>
                </mxCell>
                <mxCell id="253" value="" style="ellipse;whiteSpace=wrap;html=1;aspect=fixed;strokeColor=default;strokeWidth=2;fontSize=7;fontColor=#000000;fillColor=default;" vertex="1" parent="1">
                    <mxGeometry x="685" y="857.5" width="30" height="30" as="geometry"/>
                </mxCell>
                <mxCell id="254" value="" style="shape=actor;whiteSpace=wrap;html=1;strokeColor=default;strokeWidth=2;fontSize=7;fontColor=#000000;fillColor=default;" vertex="1" parent="1">
                    <mxGeometry x="690.75" y="862.5" width="20" height="20" as="geometry"/>
                </mxCell>
                <mxCell id="255" value="New password&lt;br&gt;&lt;br&gt;Confirm new password&lt;br&gt;&lt;br&gt;" style="text;html=1;strokeColor=none;fillColor=none;align=center;verticalAlign=middle;whiteSpace=wrap;rounded=0;strokeWidth=2;fontSize=5;fontColor=#FFFFFF;" vertex="1" parent="1">
                    <mxGeometry x="660.75" y="890" width="80" height="55" as="geometry"/>
                </mxCell>
                <mxCell id="256" value="" style="rounded=1;whiteSpace=wrap;html=1;strokeColor=#36393d;fontSize=13;fillColor=#eeeeee;strokeWidth=2;" vertex="1" parent="1">
                    <mxGeometry x="674" y="913" width="60" height="4" as="geometry"/>
                </mxCell>
                <mxCell id="257" value="" style="rounded=1;whiteSpace=wrap;html=1;fontSize=13;strokeWidth=2;fillColor=#dae8fc;strokeColor=#6c8ebf;" vertex="1" parent="1">
                    <mxGeometry x="685.75" y="934" width="30" height="4" as="geometry"/>
                </mxCell>
                <mxCell id="258" value="" style="rounded=1;whiteSpace=wrap;html=1;strokeColor=#36393d;fontSize=13;fillColor=#eeeeee;strokeWidth=2;" vertex="1" parent="1">
                    <mxGeometry x="673" y="925" width="60" height="4" as="geometry"/>
                </mxCell>
                <mxCell id="259" value="&lt;b style=&quot;font-size: 9px;&quot;&gt;Made by xxx&lt;/b&gt;" style="text;html=1;align=center;verticalAlign=middle;whiteSpace=wrap;rounded=0;strokeColor=none;fontColor=#000000;fontSize=9;" vertex="1" parent="1">
                    <mxGeometry x="130" y="945" width="110" height="30" as="geometry"/>
                </mxCell>
                <mxCell id="260" value="&lt;b style=&quot;font-size: 9px;&quot;&gt;Made by xxx&lt;/b&gt;" style="text;html=1;align=center;verticalAlign=middle;whiteSpace=wrap;rounded=0;strokeColor=none;fontColor=#000000;fontSize=9;" vertex="1" parent="1">
                    <mxGeometry x="406.88" y="945" width="110" height="30" as="geometry"/>
                </mxCell>
                <mxCell id="261" value="&lt;b style=&quot;font-size: 9px;&quot;&gt;Made by xxx&lt;/b&gt;" style="text;html=1;align=center;verticalAlign=middle;whiteSpace=wrap;rounded=0;strokeColor=none;fontColor=#000000;fontSize=9;" vertex="1" parent="1">
                    <mxGeometry x="674" y="952.5" width="110" height="30" as="geometry"/>
                </mxCell>
                <mxCell id="262" value="" style="shape=flexArrow;endArrow=classic;html=1;fontSize=11;fontColor=#FFFFFF;fillColor=#e1d5e7;strokeColor=#9673a6;" edge="1" parent="1">
                    <mxGeometry width="50" height="50" relative="1" as="geometry">
                        <mxPoint x="155.75" y="842.5" as="sourcePoint"/>
                        <mxPoint x="390" y="720" as="targetPoint"/>
                        <Array as="points">
                            <mxPoint x="156" y="793"/>
                            <mxPoint x="390" y="793"/>
                        </Array>
                    </mxGeometry>
                </mxCell>
                <mxCell id="263" value="Redirect to Home" style="text;html=1;strokeColor=none;fillColor=none;align=center;verticalAlign=middle;whiteSpace=wrap;rounded=0;strokeWidth=2;fontSize=11;fontColor=#FFFFFF;" vertex="1" parent="1">
                    <mxGeometry x="193.25" y="790" width="160" height="50" as="geometry"/>
                </mxCell>
                <mxCell id="265" value="" style="shape=flexArrow;endArrow=classic;html=1;fontSize=11;fontColor=#FFFFFF;fillColor=#e1d5e7;strokeColor=#9673a6;" edge="1" parent="1">
                    <mxGeometry width="50" height="50" relative="1" as="geometry">
                        <mxPoint x="700" y="850" as="sourcePoint"/>
                        <mxPoint x="470" y="720" as="targetPoint"/>
                        <Array as="points">
                            <mxPoint x="700" y="793"/>
                            <mxPoint x="470" y="793"/>
                        </Array>
                    </mxGeometry>
                </mxCell>
                <mxCell id="266" value="Redirect to Home" style="text;html=1;strokeColor=none;fillColor=none;align=center;verticalAlign=middle;whiteSpace=wrap;rounded=0;strokeWidth=2;fontSize=11;fontColor=#FFFFFF;" vertex="1" parent="1">
                    <mxGeometry x="516.88" y="790" width="160" height="50" as="geometry"/>
                </mxCell>
                <mxCell id="267" value="" style="shape=cylinder3;whiteSpace=wrap;html=1;boundedLbl=1;backgroundOutline=1;size=15;strokeWidth=2;fontSize=13;fillColor=#dae8fc;strokeColor=#6c8ebf;" vertex="1" parent="1">
                    <mxGeometry x="731.5" y="685" width="70" height="80" as="geometry"/>
                </mxCell>
                <mxCell id="268" value="DB&lt;br&gt;Users" style="text;html=1;strokeColor=none;fillColor=none;align=center;verticalAlign=middle;whiteSpace=wrap;rounded=0;strokeWidth=2;fontSize=13;fontColor=#FFFFFF;" vertex="1" parent="1">
                    <mxGeometry x="730" y="715" width="71.5" height="40" as="geometry"/>
                </mxCell>
                <mxCell id="269" value="" style="shape=flexArrow;endArrow=classic;html=1;fontSize=11;fontColor=#FFFFFF;fillColor=#dae8fc;strokeColor=#6c8ebf;" edge="1" parent="1">
                    <mxGeometry width="50" height="50" relative="1" as="geometry">
                        <mxPoint x="770" y="920" as="sourcePoint"/>
                        <mxPoint x="760" y="770" as="targetPoint"/>
                        <Array as="points">
                            <mxPoint x="790" y="920"/>
                            <mxPoint x="790" y="830"/>
                            <mxPoint x="760" y="830"/>
                        </Array>
                    </mxGeometry>
                </mxCell>
                <mxCell id="270" value="" style="shape=flexArrow;endArrow=classic;html=1;fontSize=11;fontColor=#FFFFFF;fillColor=#dae8fc;strokeColor=#6c8ebf;" edge="1" parent="1">
                    <mxGeometry width="50" height="50" relative="1" as="geometry">
                        <mxPoint x="120" y="980" as="sourcePoint"/>
                        <mxPoint x="240" y="1040" as="targetPoint"/>
                        <Array as="points">
                            <mxPoint x="120" y="1040"/>
                        </Array>
                    </mxGeometry>
                </mxCell>
                <mxCell id="271" value="" style="shape=cylinder3;whiteSpace=wrap;html=1;boundedLbl=1;backgroundOutline=1;size=15;strokeWidth=2;fontSize=13;fillColor=#dae8fc;strokeColor=#6c8ebf;" vertex="1" parent="1">
                    <mxGeometry x="255.75" y="982.5" width="70" height="80" as="geometry"/>
                </mxCell>
                <mxCell id="272" value="DB&lt;br&gt;Users" style="text;html=1;strokeColor=none;fillColor=none;align=center;verticalAlign=middle;whiteSpace=wrap;rounded=0;strokeWidth=2;fontSize=13;fontColor=#FFFFFF;" vertex="1" parent="1">
                    <mxGeometry x="254.25" y="1012.5" width="71.5" height="40" as="geometry"/>
                </mxCell>
                <mxCell id="273" value="" style="shape=flexArrow;endArrow=classic;html=1;fontSize=20;fontColor=#FFFFFF;fillColor=#ffe6cc;strokeColor=#d79b00;" edge="1" parent="1">
                    <mxGeometry width="50" height="50" relative="1" as="geometry">
                        <mxPoint x="110" y="620" as="sourcePoint"/>
                        <mxPoint x="30" y="1050" as="targetPoint"/>
                        <Array as="points">
                            <mxPoint x="30" y="620"/>
                        </Array>
                    </mxGeometry>
                </mxCell>
                <mxCell id="274" value="" style="shape=cylinder3;whiteSpace=wrap;html=1;boundedLbl=1;backgroundOutline=1;size=15;strokeWidth=2;fontSize=13;fillColor=#ffe6cc;strokeColor=#d79b00;" vertex="1" parent="1">
                    <mxGeometry x="10" y="1062.5" width="70" height="80" as="geometry"/>
                </mxCell>
                <mxCell id="275" value="DB&lt;br&gt;Collection" style="text;html=1;strokeColor=none;fillColor=none;align=center;verticalAlign=middle;whiteSpace=wrap;rounded=0;strokeWidth=2;fontSize=13;fontColor=#FFFFFF;" vertex="1" parent="1">
                    <mxGeometry x="8.5" y="1092.5" width="71.5" height="40" as="geometry"/>
                </mxCell>
                <mxCell id="278" value="API" style="text;html=1;align=center;verticalAlign=middle;whiteSpace=wrap;rounded=0;strokeWidth=2;fontSize=11;fillColor=#f5f5f5;fontColor=#333333;strokeColor=#666666;" vertex="1" parent="1">
                    <mxGeometry x="159.5" y="472.5" width="60" height="30" as="geometry"/>
                </mxCell>
                <mxCell id="283" value="" style="endArrow=classic;html=1;fontSize=11;fontColor=#FFFFFF;" edge="1" parent="1">
                    <mxGeometry width="50" height="50" relative="1" as="geometry">
                        <mxPoint x="185.75" y="507.5" as="sourcePoint"/>
                        <mxPoint x="185.75" y="557.5" as="targetPoint"/>
                    </mxGeometry>
                </mxCell>
                <mxCell id="284" value="" style="shape=cylinder3;whiteSpace=wrap;html=1;boundedLbl=1;backgroundOutline=1;size=15;strokeWidth=2;fontSize=13;fillColor=#ffe6cc;strokeColor=#d79b00;" vertex="1" parent="1">
                    <mxGeometry x="595.75" y="1045" width="70" height="80" as="geometry"/>
                </mxCell>
                <mxCell id="285" value="DB&lt;br&gt;Collection" style="text;html=1;strokeColor=none;fillColor=none;align=center;verticalAlign=middle;whiteSpace=wrap;rounded=0;strokeWidth=2;fontSize=13;fontColor=#FFFFFF;" vertex="1" parent="1">
                    <mxGeometry x="594.25" y="1075" width="71.5" height="40" as="geometry"/>
                </mxCell>
                <mxCell id="286" value="" style="shape=cylinder3;whiteSpace=wrap;html=1;boundedLbl=1;backgroundOutline=1;size=15;strokeWidth=2;fontSize=13;fillColor=#dae8fc;strokeColor=#6c8ebf;" vertex="1" parent="1">
                    <mxGeometry x="384.25" y="1045" width="70" height="80" as="geometry"/>
                </mxCell>
                <mxCell id="287" value="DB&lt;br&gt;Users" style="text;html=1;strokeColor=none;fillColor=none;align=center;verticalAlign=middle;whiteSpace=wrap;rounded=0;strokeWidth=2;fontSize=13;fontColor=#FFFFFF;" vertex="1" parent="1">
                    <mxGeometry x="382.75" y="1075" width="71.5" height="40" as="geometry"/>
                </mxCell>
                <mxCell id="288" value="&lt;div style=&quot;text-align: justify;&quot;&gt;&lt;ul&gt;&lt;li&gt;&lt;span style=&quot;background-color: initial;&quot;&gt;Id (PKey)&lt;/span&gt;&lt;/li&gt;&lt;li&gt;&lt;span style=&quot;background-color: initial;&quot;&gt;Name&lt;/span&gt;&lt;/li&gt;&lt;li&gt;&lt;span style=&quot;background-color: initial;&quot;&gt;Last Name&lt;/span&gt;&lt;/li&gt;&lt;li&gt;&lt;span style=&quot;background-color: initial;&quot;&gt;Email&lt;/span&gt;&lt;/li&gt;&lt;li&gt;&lt;span style=&quot;background-color: initial;&quot;&gt;Username&lt;/span&gt;&lt;/li&gt;&lt;li&gt;&lt;span style=&quot;background-color: initial;&quot;&gt;Password (hash)&lt;/span&gt;&lt;/li&gt;&lt;/ul&gt;&lt;/div&gt;" style="rounded=1;whiteSpace=wrap;html=1;strokeWidth=2;fontSize=11;align=center;" vertex="1" parent="1">
                    <mxGeometry x="465" y="1010" width="120" height="150" as="geometry"/>
                </mxCell>
                <mxCell id="289" value="&lt;ul&gt;&lt;li style=&quot;&quot;&gt;Id Movie(Pkey)&lt;/li&gt;&lt;li style=&quot;&quot;&gt;Id User (FKey)&lt;/li&gt;&lt;li style=&quot;&quot;&gt;Movie Name&lt;/li&gt;&lt;li style=&quot;&quot;&gt;Rating&lt;/li&gt;&lt;li style=&quot;&quot;&gt;Review&lt;/li&gt;&lt;/ul&gt;" style="rounded=1;whiteSpace=wrap;html=1;strokeWidth=2;fontSize=11;align=left;" vertex="1" parent="1">
                    <mxGeometry x="676.88" y="1010" width="133.12" height="150" as="geometry"/>
                </mxCell>
                <mxCell id="291" value="" style="shape=flexArrow;endArrow=classic;startArrow=classic;html=1;fontSize=11;fontColor=#FFFFFF;fillColor=#fff2cc;strokeColor=#d6b656;gradientColor=#ffd966;" edge="1" parent="1">
                    <mxGeometry width="100" height="100" relative="1" as="geometry">
                        <mxPoint x="420" y="1040" as="sourcePoint"/>
                        <mxPoint x="630" y="1040" as="targetPoint"/>
                        <Array as="points">
                            <mxPoint x="420" y="990"/>
                            <mxPoint x="630" y="990"/>
                        </Array>
                    </mxGeometry>
                </mxCell>
                <mxCell id="292" value="" style="rounded=1;whiteSpace=wrap;html=1;strokeColor=#666666;strokeWidth=2;fontSize=11;fillColor=#f5f5f5;fontColor=#333333;" vertex="1" parent="1">
                    <mxGeometry x="112.5" y="1075" width="235" height="85" as="geometry"/>
                </mxCell>
                <mxCell id="293" value="&lt;h1 style=&quot;text-align: center; font-size: 10px;&quot;&gt;&lt;font style=&quot;font-size: 10px;&quot;&gt;Note&lt;/font&gt;&lt;/h1&gt;&lt;p style=&quot;text-align: justify; font-size: 10px;&quot;&gt;&lt;font style=&quot;font-size: 10px;&quot;&gt;Structure of the website, some pages and stuff will be subjected to change and/or removed/added. Not everything is included in here but most of my ideas that I want to implement are here.&lt;/font&gt;&lt;/p&gt;" style="text;html=1;spacing=5;spacingTop=-20;whiteSpace=wrap;overflow=hidden;rounded=0;strokeWidth=2;fontSize=11;fontColor=#000000;fontStyle=1" vertex="1" parent="1">
                    <mxGeometry x="120" y="1075" width="220" height="85" as="geometry"/>
                </mxCell>
            </root>
        </mxGraphModel>
    </diagram>
</mxfile>